The Christmas Bunny (Rel 2011) DVDRip AC3 H264 NL Subs
.
Alternatieve titel: Flappie! Het Kerstkonijn 
.
Subtitles: vobsubs
.
[IMG]http://img832.imageshack.us/img832/2599/ftkb2011.jpg[/IMG]
.
Verenigde Staten
Drama / Familie
100 minuten

geregisseerd door Tom Seidman
met Florence Henderson, Sophie Bolen en Madeline Vail

Julia is een eenzaam pleegkind. Ze treft op kerstavond een gewond konijn aan en sluit een onverwachte vriendschap met een excentrieke boerenvrouw, die het konijn onder haar hoede neemt. Ondertussen weet Julia een band te krijgen met haar pleeggezin, waardoor het een stuk beter met haar gaat.

Vanaf 6 december te huur
. 
http://www.moviemeter.nl/film/80666
.
PLOT
. 
http://www.imdb.com/title/tt1640714/
.
INFO
.
Video
ID                               : 0
Format                           : AVC
Format/Info                      : Advanced Video Codec
Codec ID                         : H264
Duration                         : 1h 35mn
Bit rate                         : 1 821 Kbps
Width                            : 720 pixels
Height                           : 406 pixels
Display aspect ratio             : 16:9
Frame rate                       : 25.000 fps
Color space                      : YUV
Chroma subsampling               : 4:2:0
Bits/(Pixel*Frame)               : 0.249
Stream size                      : 1.21 GiB (89%)

Audio
ID                               : 1
Format                           : AC-3
Format/Info                      : Audio Coding 3
Mode extension                   : CM (complete main)
Codec ID                         : 2000
Duration                         : 1h 35mn
Bit rate mode                    : Constant
Bit rate                         : 224 Kbps
Channel(s)                       : 2 channels
Channel positions                : Front: L R
Sampling rate                    : 48.0 KHz
Bit depth                        : 16 bits
Stream size                      : 153 MiB (11%)
Alignment                        : Aligned on interleaves
Interleave, duration             : 32 ms (0.80 video frame)
Interleave, preload duration     : 32 ms
.
Enjoy
